<svg width="20" height="22" viewBox="0 0 20 22" fill="none" xmlns="http://www.w3.org/2000/svg">
<path d="M7.04 20.4925L9.37 18.5325C9.72 18.2325 10.3 18.2325 10.65 18.5325L12.98 20.4925C13.52 20.7625 14.18 20.4925 14.38 19.9125L14.82 18.5825C14.93 18.2625 14.82 17.7925 14.58 17.5525L12.31 15.2725C12.14 15.1125 12.01 14.7925 12.01 14.5625V11.7125C12.01 11.2925 12.32 11.0925 12.71 11.2525L17.62 13.3725C18.39 13.7025 19.02 13.2925 19.02 12.4525V11.1625C19.02 10.4925 18.52 9.7225 17.9 9.4625L12.31 7.0525C12.2243 7.00852 12.1516 6.94296 12.099 6.86229C12.0464 6.78162 12.0157 6.68864 12.01 6.5925V3.5925C12.01 2.6525 11.32 1.5425 10.48 1.1125C10.18 0.9625 9.83 0.9625 9.53 1.1125C8.69 1.5425 8 2.6625 8 3.6025V6.6025C8 6.7825 7.86 6.9925 7.7 7.0625L2.12 9.4725C1.5 9.7225 1 10.4925 1 11.1625V12.4525C1 13.2925 1.63 13.7025 2.4 13.3725L7.31 11.2525C7.69 11.0825 8.01 11.2925 8.01 11.7125V14.5625C8.01 14.7925 7.88 15.1125 7.72 15.2725L5.45 17.5525C5.21 17.7925 5.1 18.2525 5.21 18.5825L5.65 19.9125C5.83 20.4925 6.49 20.7725 7.04 20.4925Z" stroke="black" stroke-width="1.5" stroke-linecap="round" stroke-linejoin="round"/>
</svg>
