<svg width="22" height="22" viewBox="0 0 22 22" fill="none" xmlns="http://www.w3.org/2000/svg">
<path d="M11 4.49001V19.49M6.75 7.49001H4.5M7.5 10.49H4.5M21 15.74V3.67001C21 2.47001 20.02 1.58001 18.83 1.68001H18.77C16.67 1.86001 13.48 2.93001 11.7 4.05001L11.53 4.16001C11.24 4.34001 10.76 4.34001 10.47 4.16001L10.22 4.01001C8.44 2.90001 5.26 1.84001 3.16 1.67001C1.97 1.57001 1 2.47001 1 3.66001V15.74C1 16.7 1.78 17.6 2.74 17.72L3.03 17.76C5.2 18.05 8.55 19.15 10.47 20.2L10.51 20.22C10.78 20.37 11.21 20.37 11.47 20.22C13.39 19.16 16.75 18.05 18.93 17.76L19.26 17.72C20.22 17.6 21 16.7 21 15.74Z" stroke="black" stroke-width="1.5" stroke-linecap="round" stroke-linejoin="round"/>
</svg>
