<svg width="24" height="24" viewBox="0 0 24 24" fill="none" xmlns="http://www.w3.org/2000/svg">
<path d="M14 8H19M15 12H19M17 16H19M17 21H7C3 21 2 20 2 16V8C2 4 3 3 7 3H17C21 3 22 4 22 8V16C22 20 21 21 17 21Z" stroke="black" stroke-width="1.5" stroke-linecap="round" stroke-linejoin="round"/>
<path d="M12 16.33C11.9327 15.628 11.6219 14.9718 11.1214 14.475C10.621 13.9782 9.96243 13.6722 9.26 13.61C8.75457 13.56 8.24543 13.56 7.74 13.61C7.03826 13.674 6.38078 13.9807 5.88069 14.4771C5.3806 14.9735 5.06918 15.6287 5 16.33M8.5 11.29C8.98004 11.29 9.44042 11.0993 9.77986 10.7599C10.1193 10.4204 10.31 9.96004 10.31 9.48C10.31 8.99996 10.1193 8.53958 9.77986 8.20014C9.44042 7.86069 8.98004 7.67 8.5 7.67C8.01996 7.67 7.55958 7.86069 7.22014 8.20014C6.8807 8.53958 6.69 8.99996 6.69 9.48C6.69 9.96004 6.8807 10.4204 7.22014 10.7599C7.55958 11.0993 8.01996 11.29 8.5 11.29Z" stroke="black" stroke-width="1.5" stroke-linecap="round" stroke-linejoin="round"/>
</svg>
