<svg width="18" height="20" viewBox="0 0 18 20" fill="none" xmlns="http://www.w3.org/2000/svg">
<path d="M14.54 7.06C12.77 7.06 11.33 5.62 11.33 3.85C11.33 2.08 12.77 0.639999 14.54 0.639999C16.31 0.639999 17.75 2.08 17.75 3.85C17.75 5.62 16.31 7.06 14.54 7.06ZM14.54 2.13C13.6 2.13 12.83 2.9 12.83 3.84C12.83 4.78 13.6 5.55 14.54 5.55C15.48 5.55 16.25 4.78 16.25 3.84C16.25 2.9 15.48 2.13 14.54 2.13ZM3.46 7.06C1.69 7.06 0.25 5.62 0.25 3.85C0.25 2.08 1.69 0.639999 3.46 0.639999C5.23 0.639999 6.67 2.08 6.67 3.85C6.67 5.62 5.23 7.06 3.46 7.06ZM3.46 2.13C2.52 2.13 1.75 2.9 1.75 3.84C1.75 4.78 2.52 5.55 3.46 5.55C4.4 5.55 5.17 4.78 5.17 3.84C5.17 2.9 4.41 2.13 3.46 2.13ZM14.54 19.37C12.77 19.37 11.33 17.93 11.33 16.16C11.33 14.39 12.77 12.95 14.54 12.95C16.31 12.95 17.75 14.39 17.75 16.16C17.75 17.93 16.31 19.37 14.54 19.37ZM14.54 14.44C13.6 14.44 12.83 15.21 12.83 16.15C12.83 17.09 13.6 17.86 14.54 17.86C15.48 17.86 16.25 17.09 16.25 16.15C16.25 15.21 15.48 14.44 14.54 14.44ZM3.46 19.37C1.69 19.37 0.25 17.93 0.25 16.16C0.25 14.39 1.69 12.95 3.46 12.95C5.23 12.95 6.67 14.39 6.67 16.16C6.67 17.93 5.23 19.37 3.46 19.37ZM3.46 14.44C2.52 14.44 1.75 15.21 1.75 16.15C1.75 17.09 2.52 17.86 3.46 17.86C4.4 17.86 5.17 17.09 5.17 16.15C5.17 15.21 4.41 14.44 3.46 14.44Z" fill="black"/>
</svg>
