<svg width="20" height="22" viewBox="0 0 20 22" fill="none" xmlns="http://www.w3.org/2000/svg">
<path d="M1 21H19M3.6 7.38H2C1.45 7.38 1 7.83 1 8.38V17C1 17.55 1.45 18 2 18H3.6C4.15 18 4.6 17.55 4.6 17V8.38C4.6 7.83 4.15 7.38 3.6 7.38ZM10.8 4.19H9.2C8.65 4.19 8.2 4.64 8.2 5.19V17C8.2 17.55 8.65 18 9.2 18H10.8C11.35 18 11.8 17.55 11.8 17V5.19C11.8 4.64 11.35 4.19 10.8 4.19ZM18 1H16.4C15.85 1 15.4 1.45 15.4 2V17C15.4 17.55 15.85 18 16.4 18H18C18.55 18 19 17.55 19 17V2C19 1.45 18.55 1 18 1Z" stroke="black" stroke-width="1.5" stroke-linecap="round" stroke-linejoin="round"/>
</svg>
