<svg width="24" height="24" viewBox="0 0 24 24" fill="none" xmlns="http://www.w3.org/2000/svg">
<path d="M22 10V13C22 17 20 19 16 19H15.5C15.19 19 14.89 19.15 14.7 19.4L13.2 21.4C12.54 22.28 11.46 22.28 10.8 21.4L9.3 19.4C9.14 19.18 8.77 19 8.5 19H8C4 19 2 18 2 13V8C2 4 4 2 8 2H14" stroke="black" stroke-width="1.5" stroke-miterlimit="10" stroke-linecap="round" stroke-linejoin="round"/>
<path d="M19.5 7C20.163 7 20.7989 6.73661 21.2678 6.26777C21.7366 5.79893 22 5.16304 22 4.5C22 3.83696 21.7366 3.20107 21.2678 2.73223C20.7989 2.26339 20.163 2 19.5 2C18.837 2 18.2011 2.26339 17.7322 2.73223C17.2634 3.20107 17 3.83696 17 4.5C17 5.16304 17.2634 5.79893 17.7322 6.26777C18.2011 6.73661 18.837 7 19.5 7Z" stroke="black" stroke-width="1.5" stroke-linecap="round" stroke-linejoin="round"/>
<path d="M15.9961 11H16.0061M11.9951 11H12.0051M7.99512 11H8.00312" stroke="black" stroke-width="2" stroke-linecap="round" stroke-linejoin="round"/>
</svg>
